<?xml version="1.0" encoding="UTF-8"?>
<!DOCTYPE svg PUBLIC "-//W3C//DTD SVG 1.1//EN" "http://www.w3.org/Graphics/SVG/1.1/DTD/svg11.dtd">
<!-- Creator: CorelDRAW -->
<svg xmlns="http://www.w3.org/2000/svg" xml:space="preserve" width="87.0558mm" height="41.5531mm" version="1.1" style="shape-rendering:geometricPrecision; text-rendering:geometricPrecision; image-rendering:optimizeQuality; fill-rule:evenodd; clip-rule:evenodd"
viewBox="0 0 8704.52 4154.8"
 xmlns:xlink="http://www.w3.org/1999/xlink"
 xmlns:xodm="http://www.corel.com/coreldraw/odm/2003">
 <defs>
  <style type="text/css">
   <![CDATA[
    .fil0 {fill:black}
    .fil1 {fill:#1520BF}
   ]]>
  </style>
 </defs>
 <g id="Camada_x0020_1">
  <metadata id="CorelCorpID_0Corel-Layer"/>
  <g id="_2466796577824">
   <path class="fil0" d="M4808.49 2105.46c55.19,-86.41 131.56,-138.38 199.28,-206.33 367,-368.31 959.49,-1099.21 1431.62,-1188.49 880.87,-166.59 1586.46,517.38 1607.87,1314.55 22.45,835.53 -702.04,1580.95 -1581.52,1417.76 -462.54,-85.83 -668.48,-369.57 -906.26,-598.19l-750.99 -739.3zm-467.32 490.51c214.33,120.16 932.88,943.4 1273.62,1198.25 993.02,742.75 2275.86,240.86 2783.37,-647.48 1069.54,-1872.11 -869.91,-3855.16 -2606.94,-2897.77 -232.74,128.27 -411.93,362.29 -646.8,570.07 -76.96,68.09 -127.31,148.52 -202.03,221.02l-1651.29 1629.02c-265.91,262.85 -524.18,649.09 -918.04,748.21 -1051.16,264.55 -1769.73,-609.78 -1695.61,-1488.51 57.86,-686.09 561.13,-1199.59 1205.09,-1240.32 347.62,-21.99 427.68,60.93 685.73,143.07 115.74,-151.38 331.84,-301.69 428.71,-471.9 -684.45,-625.38 -1935.67,-298.99 -2407.84,242.18 -262.15,300.46 -469.96,575.36 -557.7,1109.28 -314.95,1916.52 1811.94,3041.55 3012.19,2111.69l858.79 -807.17c124.21,-119.56 302.02,-319.93 438.75,-419.66z"/>
   <circle class="fil1" cx="3673.59" cy="1421.75" r="309.28"/>
  </g>
 </g>
</svg>
